<svg width="46" height="45" fill="none" xmlns="http://www.w3.org/2000/svg"><path d="M8.92 17.94a.89.89 0 01-.726-.377c-2.516-3.578-2.998-6.522-1.402-8.51a.873.873 0 01.67-.33c16.698-.394 28.492-.171 31.589 0a.885.885 0 01.748.493c1.157 2.365.392 5.228-2.21 8.287a.884.884 0 01-1.351-1.14c1.368-1.606 2.791-3.886 2.155-5.909-3.734-.163-14.904-.343-30.431.018-.99 1.778.602 4.533 1.686 6.076a.88.88 0 01-.22 1.23.862.862 0 01-.507.162z" fill="#000" fill-opacity=".7"/><path d="M33.072 45c-.004 0-.004 0 0 0-12.87 0-31.91-.257-32.1-.261-.452-.009-.822-.326-.869-.772-.017-.192-.451-4.722.602-10.356 1.407-7.53 4.83-13.365 9.906-16.883a.864.864 0 01.52-.155c9.54.15 19.924.155 22.879.155l.89-.009c.138 0 .271.039.396.103.129.064 3.243 1.641 6.09 5.81 2.59 3.797 5.454 10.584 4.383 21.352-.025.253-.159.442-.37.592-.348.24-.67.424-12.327.424zM1.815 43.012c3.79.056 19.923.274 31.253.274h.004c7.317 0 10.01-.081 10.994-.159.835-9.79-1.742-15.944-4.082-19.415-2.224-3.3-4.658-4.838-5.312-5.215l-.662.005c-2.93 0-13.145-.022-22.616-.168-9.768 6.99-9.742 21.194-9.579 24.678z" fill="#000" fill-opacity=".7"/><path d="M6.22 41.555c-.035 0-.065 0-.1-.004a.889.889 0 01-.782-.977c.275-2.439 1.122-7.118 3.712-11.09 3.14-4.82 7.832-7.263 13.949-7.263 14.473 0 17.871 12.8 18.658 18.301a.886.886 0 01-1.755.248c-.898-6.268-4.292-16.784-16.908-16.784-12.645 0-15.334 11.741-15.901 16.789a.878.878 0 01-.874.78z" fill="#000" fill-opacity=".7"/><path d="M31.692 43.26a.883.883 0 01-.887.883H14.938a.883.883 0 01-.886-.883v-5.09c0-.489.396-.883.886-.883h15.863c.49 0 .886.394.886.883v5.09h.005zm-15.915-.831H29.97v-3.428H15.777v3.428zm18.272-26.224a.882.882 0 01-.37-1.684c.034-.017 1.105-.574 1.42-2.353a.884.884 0 011.742.309c-.483 2.725-2.34 3.612-2.422 3.646a.86.86 0 01-.37.082z" fill="#000" fill-opacity=".7"/><path d="M23.132 38.56a.882.882 0 01-.882-.819l-.254-3.565a.884.884 0 01.822-.943c.49-.034.912.33.946.819l.254 3.565a.884.884 0 01-.822.943h-.064z" fill="#000" fill-opacity=".7"/><path d="M20.478 36.97a2.58 2.58 0 01-1.884-.784c-.705-.72-1.092-1.89-1.062-3.218.051-2.417 2.374-8.33 5.247-8.33h.052c2.116.055 4.757 4.225 5.187 7.297.327 2.318-.559 3.985-2.43 4.568-.933.291-1.944.06-2.701-.549a2.736 2.736 0 01-1.123.763 3.7 3.7 0 01-1.286.253zm2.301-10.567c-1.191 0-3.432 4.26-3.484 6.603-.017.832.198 1.573.56 1.946.3.308.71.33 1.277.115.322-.12.538-.295.64-.767-.214-.698-.18-1.414.104-2.035a.893.893 0 01.96-.506.89.89 0 01.73.802c.052.625.056 1.105.022 1.517.22.407.636.788 1.148.788.104 0 .211-.017.319-.051.374-.116 1.505-.468 1.204-2.64-.4-2.862-2.77-5.75-3.48-5.772zM17.442 7.81a.868.868 0 01-.254-.038c-.645-.193-1.532-.544-1.807-1.384-.3-.909.319-1.727.865-2.447.946-1.251 1.006-1.56.378-2.074A.884.884 0 1117.755.51c2.04 1.68.65 3.514-.094 4.5-.194.256-.473.625-.56.83.082.056.254.146.599.249a.88.88 0 01.593 1.097.891.891 0 01-.851.625zm5.058-.304a.87.87 0 01-.254-.038c-.645-.193-1.531-.544-1.807-1.384-.3-.909.319-1.727.865-2.447.946-1.251 1.007-1.56.379-2.074A.885.885 0 0122.814.205c2.038 1.68.65 3.513-.095 4.499-.194.257-.473.626-.56.831.083.056.255.146.599.249.469.141.735.63.593 1.097a.893.893 0 01-.851.625zm4.808 0a.848.848 0 01-.253-.038c-.645-.193-1.532-.544-1.807-1.384-.3-.909.319-1.727.865-2.447.946-1.251 1.002-1.56.378-2.074A.885.885 0 0127.622.205c2.04 1.68.65 3.513-.094 4.499-.194.257-.473.626-.56.831.082.056.255.146.599.249a.88.88 0 01.593 1.097.9.9 0 01-.852.625z" fill="#000" fill-opacity=".7"/></svg>