<svg width="65" height="30" fill="none" xmlns="http://www.w3.org/2000/svg"><path d="M54.688 18.307c.773-1.718.719-3.51-.018-4.626l2.713-5.67-.09-.038c2.72-1.914 4.91-4.429 6.78-7.56-2.024 2.974-4.333 5.278-7.12 7.005l-5.567-2.333c-.192-1.321-1.346-2.7-3.07-3.47-1.774-.795-3.636-.716-4.747.08.141 1.355 1.314 2.793 3.088 3.587 1.724.771 3.521.716 4.64-.018l5.148 2.45c-1.621.948-3.397 1.71-5.37 2.296-2.415.489-4.827.74-7.257.859l-5.43-2.293c-.193-1.321-1.347-2.7-3.07-3.47-1.775-.795-3.636-.715-4.748.08.142 1.355 1.314 2.793 3.089 3.588 1.723.77 3.52.716 4.64-.018l4.514 2.151c-2.678.09-5.352.03-8.053-.049a133.068 133.068 0 00-5.127-.052l-5.302-2.228c-.192-1.321-1.346-2.7-3.07-3.47-1.774-.795-3.636-.716-4.747.08.141 1.355 1.314 2.793 3.088 3.587 1.724.771 3.521.717 4.64-.017l4.321 2.053c-3.365.079-6.702.375-10.029 1.152-.254.082-.498.18-.75.272l-5.901-2.039c-.28-1.303-1.516-2.6-3.285-3.259-1.809-.684-3.662-.485-4.713.378C4.11 8.658 5.38 10.018 7.2 10.7c1.77.658 3.559.484 4.624-.313l5.297 2.12c-4.83 1.964-8.306 5.18-11.07 9.722-.007-.004-.003-.011-.003-.011-1.36-.135-3.007.739-4.131 2.324-1.13 1.581-1.418 3.416-.847 4.652 1.364.129 3-.743 4.131-2.324 1.122-1.567 1.408-3.385.854-4.62 2.947-4.253 6.509-7.118 11.253-8.853l-1.778 5.1c-1.306.28-2.608 1.512-3.268 3.276-.683 1.815-.484 3.663.388 4.715 1.347-.224 2.71-1.492 3.394-3.307.66-1.764.486-3.548-.314-4.61l2.162-5.382c.329-.109.664-.214 1-.318 3.557-.722 7.131-.93 10.722-.947l-2.184 5.168c-1.325.191-2.707 1.342-3.48 3.06-.797 1.77-.717 3.627.08 4.735 1.36-.14 2.801-1.31 3.598-3.08.773-1.719.718-3.511-.018-4.626l2.513-5.249c1.694.002 3.384.039 5.083.09 2.834.08 5.64.112 8.436-.042l-2.164 5.123c-1.325.192-2.708 1.343-3.48 3.062-.797 1.77-.718 3.625.08 4.734 1.359-.141 2.8-1.31 3.597-3.08.773-1.719.719-3.511-.017-4.627l2.508-5.242c2.427-.157 4.852-.458 7.257-1.02A23.264 23.264 0 0056.68 8.4l-2.203 5.212c-1.326.191-2.708 1.342-3.48 3.061-.798 1.77-.718 3.626.08 4.734 1.367-.154 2.813-1.33 3.61-3.1z" fill="#6A7571"/><path d="M54.688 18.307c.773-1.718.719-3.51-.018-4.626l2.713-5.67-.09-.038c2.72-1.914 4.91-4.429 6.78-7.56-2.024 2.974-4.333 5.278-7.12 7.005l-5.567-2.333c-.192-1.321-1.346-2.7-3.07-3.47-1.774-.795-3.636-.716-4.747.08.141 1.355 1.314 2.793 3.088 3.587 1.724.771 3.521.716 4.64-.018l5.148 2.45c-1.621.948-3.397 1.71-5.37 2.296-2.415.489-4.827.74-7.257.859l-5.43-2.293c-.193-1.321-1.347-2.7-3.07-3.47-1.775-.795-3.636-.715-4.748.08.142 1.355 1.314 2.793 3.089 3.588 1.723.77 3.52.716 4.64-.018l4.514 2.151c-2.678.09-5.352.03-8.053-.049a133.068 133.068 0 00-5.127-.052l-5.302-2.228c-.192-1.321-1.346-2.7-3.07-3.47-1.774-.795-3.636-.716-4.747.08.141 1.355 1.314 2.793 3.088 3.587 1.724.771 3.521.717 4.64-.017l4.321 2.053c-3.365.079-6.702.375-10.029 1.152-.254.082-.498.18-.75.272l-5.901-2.039c-.28-1.303-1.516-2.6-3.285-3.259-1.809-.684-3.662-.485-4.713.378C4.11 8.658 5.38 10.018 7.2 10.7c1.77.658 3.559.484 4.624-.313l5.297 2.12c-4.83 1.964-8.306 5.18-11.07 9.722-.007-.004-.003-.011-.003-.011-1.36-.135-3.007.739-4.131 2.324-1.13 1.581-1.418 3.416-.847 4.652 1.364.129 3-.743 4.131-2.324 1.122-1.567 1.408-3.385.854-4.62 2.947-4.253 6.509-7.118 11.253-8.853l-1.778 5.1c-1.306.28-2.608 1.512-3.268 3.276-.683 1.815-.484 3.663.388 4.715 1.347-.224 2.71-1.492 3.394-3.307.66-1.764.486-3.548-.314-4.61l2.162-5.382c.329-.109.664-.214 1-.318 3.557-.722 7.131-.93 10.722-.947l-2.184 5.168c-1.325.191-2.707 1.342-3.48 3.06-.797 1.77-.717 3.627.08 4.735 1.36-.14 2.801-1.31 3.598-3.08.773-1.719.718-3.511-.018-4.626l2.513-5.249c1.694.002 3.384.039 5.083.09 2.834.08 5.64.112 8.436-.042l-2.164 5.123c-1.325.192-2.708 1.343-3.48 3.062-.797 1.77-.718 3.625.08 4.734 1.359-.141 2.8-1.31 3.597-3.08.773-1.719.719-3.511-.017-4.627l2.508-5.242c2.427-.157 4.852-.458 7.257-1.02A23.264 23.264 0 0056.68 8.4l-2.203 5.212c-1.326.191-2.708 1.342-3.48 3.061-.798 1.77-.718 3.626.08 4.734 1.367-.154 2.813-1.33 3.61-3.1z" fill="#6A7571"/><path d="M54.688 18.307c.773-1.718.719-3.51-.018-4.626l2.713-5.67-.09-.038c2.72-1.914 4.91-4.429 6.78-7.56-2.024 2.974-4.333 5.278-7.12 7.005l-5.567-2.333c-.192-1.321-1.346-2.7-3.07-3.47-1.774-.795-3.636-.716-4.747.08.141 1.355 1.314 2.793 3.088 3.587 1.724.771 3.521.716 4.64-.018l5.148 2.45c-1.621.948-3.397 1.71-5.37 2.296-2.415.489-4.827.74-7.257.859l-5.43-2.293c-.193-1.321-1.347-2.7-3.07-3.47-1.775-.795-3.636-.715-4.748.08.142 1.355 1.314 2.793 3.089 3.588 1.723.77 3.52.716 4.64-.018l4.514 2.151c-2.678.09-5.352.03-8.053-.049a133.068 133.068 0 00-5.127-.052l-5.302-2.228c-.192-1.321-1.346-2.7-3.07-3.47-1.774-.795-3.636-.716-4.747.08.141 1.355 1.314 2.793 3.088 3.587 1.724.771 3.521.717 4.64-.017l4.321 2.053c-3.365.079-6.702.375-10.029 1.152-.254.082-.498.18-.75.272l-5.901-2.039c-.28-1.303-1.516-2.6-3.285-3.259-1.809-.684-3.662-.485-4.713.378C4.11 8.658 5.38 10.018 7.2 10.7c1.77.658 3.559.484 4.624-.313l5.297 2.12c-4.83 1.964-8.306 5.18-11.07 9.722-.007-.004-.003-.011-.003-.011-1.36-.135-3.007.739-4.131 2.324-1.13 1.581-1.418 3.416-.847 4.652 1.364.129 3-.743 4.131-2.324 1.122-1.567 1.408-3.385.854-4.62 2.947-4.253 6.509-7.118 11.253-8.853l-1.778 5.1c-1.306.28-2.608 1.512-3.268 3.276-.683 1.815-.484 3.663.388 4.715 1.347-.224 2.71-1.492 3.394-3.307.66-1.764.486-3.548-.314-4.61l2.162-5.382c.329-.109.664-.214 1-.318 3.557-.722 7.131-.93 10.722-.947l-2.184 5.168c-1.325.191-2.707 1.342-3.48 3.06-.797 1.77-.717 3.627.08 4.735 1.36-.14 2.801-1.31 3.598-3.08.773-1.719.718-3.511-.018-4.626l2.513-5.249c1.694.002 3.384.039 5.083.09 2.834.08 5.64.112 8.436-.042l-2.164 5.123c-1.325.192-2.708 1.343-3.48 3.062-.797 1.77-.718 3.625.08 4.734 1.359-.141 2.8-1.31 3.597-3.08.773-1.719.719-3.511-.017-4.627l2.508-5.242c2.427-.157 4.852-.458 7.257-1.02A23.264 23.264 0 0056.68 8.4l-2.203 5.212c-1.326.191-2.708 1.342-3.48 3.061-.798 1.77-.718 3.626.08 4.734 1.367-.154 2.813-1.33 3.61-3.1z" fill="#6A7571"/></svg>