<svg width="50" height="52" fill="none" xmlns="http://www.w3.org/2000/svg"><path d="M45.277 52H28.978c-2.02 0-3.675-1.647-3.675-3.658V21.53c0-2.011 1.655-3.518 3.675-3.518h3.153v-2.987c-1.205-.164-1.606-.876-1.606-1.727v-1.883c0-.972.783-1.803 1.763-1.803h8.149c.08 0 .16.012.237.036a.773.773 0 01.237-.036h1.301c.976 0 1.57.827 1.57 1.803v1.883c0 .931-.4 1.7-1.606 1.76v2.954h3.105c2.02 0 3.723 1.507 3.723 3.518v26.808C49 50.348 47.297 52 45.277 52zM28.978 19.615c-1.108 0-2.068.816-2.068 1.92v26.807c0 1.103.96 2.059 2.068 2.059h16.299c1.108 0 2.116-.956 2.116-2.06v-26.81c0-1.104-1.008-1.92-2.116-1.92h-3.78c-.458 0-.931-.448-.931-.904v-4.466c0-.455.477-.623.931-.623h.707c.065 0-.036-.252-.036-.316v-1.883c0-.064.1-.204.036-.204h-1.301a.791.791 0 01-.237-.036.772.772 0 01-.237.036h-8.141c-.064 0-.157.136-.157.204v1.883c0 .064.088.316.157.316h.474c.458 0 .98.172.98.623v4.47c0 .456-.522.904-.98.904h-3.784z" fill="#090B0F" fill-opacity=".7"/><path d="M40.164 15.992c0 .456-.37.824-.827.824h-4.37a.827.827 0 01-.828-.823V6.84c0-.456.37-.824.828-.824h4.37c.457 0 .827.368.827.824v9.151zm-4.418-.775h2.811V7.62h-2.811v7.597zM20.002 52H3.703C1.683 52 0 50.485 0 48.633v-24.02c0-1.863 1.715-3.403 3.703-3.403h3.125v-2.415c-.803-.14-1.607-.763-1.607-1.559v-1.687c0-.92.812-1.54 1.788-1.54h9.92c.976 0 1.948.62 1.948 1.54v1.687c0 .868-.803 1.531-2.008 1.583v2.387h3.133c1.984 0 3.695 1.54 3.695 3.403v24.02c0 1.852-1.675 3.371-3.695 3.371zM3.703 22.814c-1.088 0-2.096.831-2.096 1.799v24.02c0 .94.988 1.768 2.096 1.768h16.299c1.108 0 2.088-.824 2.088-1.768v-24.02c0-.972-1-1.803-2.088-1.803h-3.78c-.458 0-.96-.356-.96-.812V18c0-.456.502-.792.96-.792h.707c.052 0-.06-.04-.06-.048v-1.59c0-.012.128.04.06.04H7.01c-.065 0-.181-.056-.181-.04v1.591c0 .008.128.048.18.048h.475c.457 0 .951.336.951.792v3.998c0 .456-.498.811-.951.811h-3.78v.005z" fill="#090B0F" fill-opacity=".7"/><path d="M19.154 49.201H4.314c-.94 0-1.675-.516-1.675-1.303V37.759c0-1.46.638-2.76 1.803-3.687 1.073-.851 2.51-1.315 4.053-1.315 1.08 0 2.193.24 3.213.688.699.303 1.357.671 1.992 1.023 1.177.652 2.29 1.267 3.253 1.267.51 0 1.297-.148 2.265-1.415a.825.825 0 01.904-.288c.334.1.743.432.76.78.152 2.995-.017 5.477-.025 6.985-.004.32.024.6.024.835v5.37c.004.78-.787 1.2-1.727 1.2zm-14.86-1.527c.008 0 .012-.076.02-.076h14.358c.302 0 .542.052.615-.284.032-.148.004-.328.008-.48.008-.452.012-.907.016-1.359.016-1.22.028-2.439.04-3.658.016-1.784.056-3.567 0-5.35-.675.46-1.598.904-2.378.904-1.393 0-2.695-.716-4.064-1.472-.603-.336-1.233-.68-1.86-.955a6.408 6.408 0 00-2.546-.544c-1.169 0-2.241.34-3.02.96-.543.431-1.185 1.195-1.185 2.41v6.905l-.004 2.999zm40.035 1.127H30.256c-.916 0-1.74-.711-1.74-1.479v-3.666c0-3.843.057-8.988.053-11.147 0-1.396.638-2.655 1.755-3.543 1.024-.811 2.41-1.263 3.884-1.263 1.032 0 2.096.224 3.068.652.67.292 1.301.643 1.912.98 1.096.607 2.133 1.183 3.02 1.183.466 0 1.197-.136 2.105-1.328a.828.828 0 011.486.456c.136 2.663.06 4.898.04 6.373-.008.424-.052.784-.052 1.076v10.223c0 .784-.578 1.483-1.458 1.483zm-14.206-1.599H44.18V37.1c0-.296.025-.668.029-1.1.015-1.103.048-2.63 0-4.442a3.57 3.57 0 01-2 .608c-1.318 0-2.535-.676-3.824-1.391-.575-.32-1.17-.648-1.767-.912a6.012 6.012 0 00-2.398-.512c-1.1 0-2.109.32-2.84.904-.506.4-1.185 1.12-1.185 2.255 0 2.159-.076 7.304-.076 11.147v3.546h.004z" fill="#090B0F" fill-opacity=".7"/><path d="M42.975 43.04c0 .976-.795 1.763-1.77 1.763h-2.483c-.98 0-1.771-.791-1.771-1.763V26.576c0-.976.795-1.764 1.771-1.764h2.482c.98 0 1.771.792 1.771 1.764V43.04zM41.37 26.528a.116.116 0 00-.117-.116H39.08a.116.116 0 00-.117.116v16.556c0 .064.052.116.117.116h2.172a.116.116 0 00.117-.116V26.528zM18.475 43.84c0 .975-.795 1.763-1.77 1.763h-2.483c-.98 0-1.771-.792-1.771-1.763V27.375c0-.975.795-1.763 1.771-1.763h2.482c.98 0 1.771.792 1.771 1.764V43.84zm-2.008-16.513a.116.116 0 00-.116-.115h-2.173a.116.116 0 00-.117.116v16.556c0 .064.053.116.117.116h2.173a.116.116 0 00.116-.116V27.328zm-4.615-8.512h-4.49c-.458 0-.827-.344-.827-.8 0-.455.37-.799.827-.799h4.49c.458 0 .828.344.828.8 0 .452-.37.8-.828.8zm4.45-6.729a2.71 2.71 0 01-2.714-2.702 2.71 2.71 0 012.714-2.703 2.71 2.71 0 012.716 2.703 2.71 2.71 0 01-2.716 2.702zm0-3.762c-.586 0-1.064.476-1.064 1.06a1.064 1.064 0 002.129 0 1.069 1.069 0 00-1.065-1.06zm-7.727 2.411a2.032 2.032 0 01-2.036-2.027c0-1.12.911-2.027 2.036-2.027s2.036.907 2.036 2.027a2.037 2.037 0 01-2.036 2.027zm0-2.41a.38.38 0 100 .759.38.38 0 00.382-.38.383.383 0 00-.382-.38zm4.627-1.312A3.519 3.519 0 019.68 3.506C9.68 1.576 11.258 0 13.202 0a3.518 3.518 0 013.522 3.506 3.516 3.516 0 01-3.522 3.507zm0-5.366a1.865 1.865 0 00-1.868 1.86c0 1.027.84 1.859 1.868 1.859a1.868 1.868 0 001.867-1.86 1.865 1.865 0 00-1.867-1.859z" fill="#090B0F" fill-opacity=".7"/></svg>