<svg width="34" height="52" fill="none" xmlns="http://www.w3.org/2000/svg"><path d="M22.884 32.967c-1.343 0-2.671-.531-3.43-1.383a1.01 1.01 0 01-.018-1.279c.298-.36.788-.369 1.098-.022.494.554 1.52.914 2.505.874.524-.021 1.501-.18 2.146-1.01.287-.369.778-.4 1.098-.066.317.334.344.905.057 1.279-.762.983-1.913 1.554-3.245 1.607-.071-.004-.143 0-.21 0zm-11.095 0c-1.344 0-2.672-.531-3.43-1.383a1.01 1.01 0 01-.019-1.279c.298-.36.789-.369 1.098-.022.494.554 1.52.914 2.505.874.524-.021 1.502-.18 2.147-1.01.287-.369.777-.4 1.098-.066.32.334.343.905.056 1.279-.762.983-1.912 1.554-3.244 1.607-.072-.004-.144 0-.211 0z" fill="#090B0F" fill-opacity=".7"/><path d="M17.912 51.996c-7.463 0-12.296-13.446-14.054-19.34-.14-.47.076-.99.48-1.152.403-.162.848.088.988.558 1.316 4.41 6.146 18.757 13.046 18.107 8.25-.769 10.91-19.486 10.933-19.675.068-.492.464-.83.89-.751.423.079.714.54.646 1.037-.113.83-2.89 20.311-12.345 21.19a6.564 6.564 0 01-.584.026zM2.497 31.33c-.314 0-.604-.22-.725-.576-.15-.457-3.705-11.324-.305-20.241 1.6-4.204 4.482-7.257 8.571-9.075a.217.217 0 01.06-.022c6.565-2.232 12.149-1.823 16.59 1.212 4.165 2.846 5.915 7.134 6.353 8.377.479 1.361.66 2.354-.012 2.776-.052.03-.426.246-.81-.03-11.534.004-18.638 4.59-22.58 8.455-4.305 4.221-5.875 8.522-5.89 8.566-.162.448-.596.667-.985.5a.64.64 0 01-.267.058zm8.066-28.192c-3.671 1.642-6.255 4.37-7.678 8.104-2.494 6.545-.837 14.522-.034 17.58.796-1.683 2.547-4.806 5.716-7.93 4.082-4.027 11.382-8.802 23.12-8.952-.499-1.528-1.872-4.599-4.78-7.001-4.177-3.453-9.678-4.06-16.344-1.801z" fill="#090B0F" fill-opacity=".7"/><path d="M31.328 31.329c-.265 0-.51-.154-.653-.418-1.102-1.998-2.403-4.054-3.97-6.285-1.418-2.021-3.183-4.534-5.175-6.326-.34-.303-.404-.874-.14-1.27.26-.395.75-.47 1.09-.162 2.132 1.915 3.962 4.52 5.43 6.611a75.244 75.244 0 013.27 5.047c1.608-4.924 1.347-10.05 1.019-12.822-.06-.496.238-.953.664-1.019.423-.066.819.277.875.773.385 3.255.676 9.572-1.712 15.353-.121.294-.37.491-.653.509-.015.009-.03.009-.046.009zm-19.49 6.795c-3.377 0-6.124-3.198-6.124-7.129 0-3.931 2.747-7.13 6.123-7.13 3.377 0 6.124 3.199 6.124 7.13s-2.747 7.13-6.123 7.13zm0-12.449c-2.52 0-4.57 2.386-4.57 5.32s2.05 5.32 4.57 5.32c2.52 0 4.568-2.386 4.568-5.32s-2.048-5.32-4.568-5.32z" fill="#090B0F" fill-opacity=".7"/><path d="M22.933 37.865c-3.377 0-6.123-3.198-6.123-7.13 0-3.93 2.747-7.129 6.123-7.129 3.377 0 6.123 3.198 6.123 7.13 0 3.931-2.746 7.129-6.123 7.129zm0-12.449c-2.52 0-4.569 2.385-4.569 5.32 0 2.934 2.049 5.32 4.57 5.32 2.52 0 4.568-2.386 4.568-5.32 0-2.935-2.049-5.32-4.569-5.32z" fill="#090B0F" fill-opacity=".7"/></svg>