<svg width="60" height="47" fill="none" xmlns="http://www.w3.org/2000/svg"><g clip-path="url(#clip0)" fill="#090B0F"><path d="M44.005 42.523H22.768c-3.193-2.97-5.02-7.193-5.02-11.633 0-6.917 4.395-12.973 10.935-15.064a.76.76 0 00.522-.721V10.26h8.597v4.867c0 .327.208.615.515.718 2.747.916 5.137 2.599 6.963 4.756.921.004 1.78.313 2.485.825-2.002-3.078-4.943-5.533-8.458-6.84V9.502a.754.754 0 00-.753-.759H28.456a.754.754 0 00-.752.759v5.054c-6.876 2.445-11.457 8.938-11.457 16.334 0 4.97 2.09 9.693 5.732 12.959a.758.758 0 00.5.191h21.815c.183 0 .362-.07.5-.191a17.351 17.351 0 001.816-1.896 4.276 4.276 0 01-.599-1.683 16.189 16.189 0 01-2.006 2.253zm6.602-11.839a17.165 17.165 0 00-.83-5.04c0 .052.008.1.008.151 0 .968-.332 1.867-.88 2.596.135.82.204 1.653.204 2.5 0 .062-.004.125-.004.187a4.2 4.2 0 011.502-.394z" fill-opacity=".71"/><path d="M39.523 9.94h-12.25a2.575 2.575 0 01-2.58-2.577 2.575 2.575 0 012.58-2.577h12.25a2.575 2.575 0 012.579 2.577 2.575 2.575 0 01-2.58 2.577zm-12.25-3.682c-.592 0-1.074.508-1.074 1.105 0 .596.482 1.104 1.074 1.104h12.25c.591 0 1.074-.508 1.074-1.104 0-.597-.483-1.105-1.074-1.105h-12.25zm9.831-2.598a.754.754 0 01-.752.758h-6.167a.754.754 0 01-.753-.759V.76c0-.42.336-.759.753-.759h6.167c.416 0 .752.339.752.758V3.66zm-6.21-.715h4.749V1.473h-4.75v1.472zm5.563 24.709a93.954 93.954 0 01-2.053-.224c-1.195-.144-2.415-.368-3.595-.578-2.13-.383-4.333-.784-6.572-.784h-.106l-.22.007c-3.072.011-6.338.273-7.259 2.087a.759.759 0 00.329 1.02.75.75 0 001.012-.331c.417-.821 2.411-1.248 5.926-1.26l.22-.007h.094c2.108 0 4.242.39 6.31.759 1.026.184 2.086.375 3.145.523a6.237 6.237 0 012.77-1.212zm6.77.063a13.8 13.8 0 01-1.352.14 31.1 31.1 0 01-2.418.007c.022.004.04.011.062.015 1.147.331 2.294.814 3.328 1.417.278-.03.57-.07.873-.121a4.274 4.274 0 01-.493-1.458zm.965-4.539c.2-.346.453-.663.738-.935-1.356-2.286-3.657-4.068-5.433-4.701a.754.754 0 00-.96.463.762.762 0 00.46.969c1.443.511 3.854 2.279 4.986 4.694.074-.166.14-.328.209-.49z" fill-opacity=".7"/><path d="M22.976 44.176H5.29c-.19 0-.373-.14-.511-.272C1.659 40.981 0 37.141 0 33.162c0-5.909 3.858-11.405 9.338-13.507V15.35c0-.42.223-.626.64-.626h8.596c.416 0 .632.207.632.626v4.34c.365.137.76.292 1.089.45.372.18.562.633.383 1.012a.732.732 0 01-.99.354c-.442-.214-1.012-.431-1.432-.593-.288-.114-.511-.394-.511-.707v-4.009h-6.942v3.987c0 .324-.241.615-.548.718-5.166 1.752-8.79 6.866-8.79 12.314 0 3.464 1.45 6.542 4.125 9.487h17.386a.736.736 0 110 1.472z" fill-opacity=".7"/><path d="M21.76 13.522c0 1.273-.903 2.308-2.013 2.308H8.794c-1.11 0-2.013-1.035-2.013-2.308v-.173c0-1.274.902-2.309 2.013-2.309h10.953c1.11 0 2.013 1.035 2.013 2.309v.173zm-1.827-.214c0-.438-.227-.791-.508-.791H8.75c-.281 0-.508.353-.508.791v.258c0 .438.227.791.508.791h10.672c.28 0 .507-.353.507-.791v-.258h.004zM1.067 31.928a.76.76 0 01-.669-1.104c.786-1.55 3.383-1.77 6.069-1.778h.175c1.878-.011 3.715.32 5.491.64.965.174 1.962.354 2.937.472.72.088 1.356.154 1.951.21.413.036.72.405.683.824a.757.757 0 01-.814.689 69.343 69.343 0 01-1.995-.214c-1.02-.121-2.039-.306-3.025-.482-1.79-.32-3.49-.626-5.22-.615h-.18c-3.514 0-4.515.515-4.731.942a.754.754 0 01-.672.416zm40.684 3.387a14.5 14.5 0 01-2.864-.272c-3.57-.725-5.783-2.824-6.4-6.067a.763.763 0 01.394-.817c2.656-1.37 5.147-1.668 7.409-.895 3.514 1.204 5.133 4.573 5.199 4.712a.758.758 0 01-.358 1.01.749.749 0 01-1.001-.358c-.015-.03-1.429-2.945-4.34-3.932-1.714-.581-3.629-.394-5.7.556.632 2.301 2.342 3.748 5.09 4.307 2.32.472 4.496.114 4.519.11a.758.758 0 01.248 1.495c-.055.008-.939.151-2.196.151z" fill-opacity=".7"/><path d="M37.41 43.72c-.74 0-1.519-.074-2.334-.221a.754.754 0 01-.617-.78c.128-3.004 1.096-5.335 2.879-6.936 2.773-2.489 6.477-2.25 6.63-2.238.414.03.728.393.695.81a.752.752 0 01-.804.699c-.04 0-3.251-.195-5.535 1.866-1.33 1.2-2.108 2.942-2.32 5.184 2.255.287 4.129-.096 5.583-1.149 2.43-1.756 2.915-4.833 2.919-4.863a.754.754 0 01.855-.637.76.76 0 01.635.858c-.022.15-.57 3.725-3.514 5.864-1.41 1.031-3.11 1.543-5.071 1.543z" fill-opacity=".7"/><path d="M52.134 47a.873.873 0 01-.168-.018c-2.908-.67-5.009-2.055-6.247-4.112-1.925-3.2-1.023-6.826-.983-6.977a.75.75 0 01.917-.54.76.76 0 01.54.923c-.006.03-.777 3.18.82 5.824.934 1.546 2.509 2.64 4.683 3.25.676-1.763.734-3.416.164-4.925-1.162-3.078-4.56-4.613-4.596-4.627a.763.763 0 01-.387-.998.748.748 0 01.99-.39c.164.07 4 1.789 5.396 5.463.786 2.065.636 4.314-.442 6.685a.756.756 0 01-.687.442z" fill-opacity=".7"/><path d="M52.54 37.627c-3.15 0-5.535-1.84-5.648-1.929a.76.76 0 01-.132-1.064.747.747 0 011.056-.132c.026.022 2.594 1.98 5.63 1.546 1.775-.254 3.394-1.278 4.811-3.04-1.413-1.37-2.963-2.085-4.607-2.129-3.222-.088-5.808 2.408-5.834 2.43a.75.75 0 01-1.063-.015.764.764 0 01.014-1.071c.125-.121 3.062-2.96 6.924-2.86 2.235.058 4.296 1.09 6.112 3.066.245.265.266.67.055.965-1.761 2.426-3.855 3.825-6.219 4.156a7.576 7.576 0 01-1.1.077z" fill-opacity=".7"/><path d="M47.11 33.54a.742.742 0 01-.54-.231.764.764 0 01.018-1.071c.037-.037 2.317-2.312 2.32-5.397.004-1.819-.778-3.586-2.33-5.26-1.52 1.048-2.452 2.348-2.77 3.876-.687 3.265 1.593 6.586 1.615 6.619a.764.764 0 01-.183 1.056.753.753 0 01-1.048-.18c-.11-.158-2.678-3.88-1.86-7.797.442-2.117 1.776-3.866 3.968-5.19a.752.752 0 01.913.106c2.13 2.102 3.208 4.388 3.197 6.796-.015 3.74-2.667 6.357-2.78 6.468a.772.772 0 01-.52.206z" fill-opacity=".7"/></g><defs><clipPath id="clip0"><path fill="#fff" d="M0 0h60v47H0z"/></clipPath></defs></svg>