<svg width="63" height="49" fill="none" xmlns="http://www.w3.org/2000/svg"><path d="M32.196 9.374c.136.016.268.03.4.054l.205.034c.068.012.132.023.2.039l.147.03c.148.03.295.07.439.107.064.016.128.035.192.054l.193.058c.064.019.125.042.19.06.063.024.124.043.188.066l.181.069.19.076c.06.023.12.05.18.077.122.054.239.111.36.168.087.046.177.089.26.138.261.138.514.291.756.456.22.146.428.299.631.463.072.058.144.12.22.18.106.092.211.188.313.284.118.107.23.21.34.325.02.02.042.038.061.058.03.03.06.061.087.095.057.058.11.115.159.177.053.057.102.118.15.176a9.018 9.018 0 01.413.532c.064.088.124.176.189.268.037.058.08.119.117.176 0 .004.004.004.004.008.037.057.075.115.105.172.038.062.076.119.11.18v.004c.072.123.14.245.204.371.034.062.064.127.095.188.034.065.064.13.09.195.023.05.046.096.065.146.007.015.015.03.022.05.03.065.06.13.083.199.03.065.057.13.08.199v.004c.08.203.147.406.211.609.008.023.015.042.02.065.03.1.056.199.082.298a9.6 9.6 0 01.322 2.486 9.616 9.616 0 01-1.096 4.457l-.102.184a15.46 15.46 0 01-5.469 2.037v-.004a16.216 16.216 0 01-2.577-5.84 16.246 16.246 0 01-2.57 5.844 15.428 15.428 0 01-5.476-2.03 4.634 4.634 0 01-.099-.183 2.463 2.463 0 01-.094-.184c-.034-.061-.064-.127-.094-.192a4.39 4.39 0 01-.087-.195c-.03-.065-.057-.13-.084-.195a7.113 7.113 0 01-.15-.395 4.427 4.427 0 01-.072-.203 5.25 5.25 0 01-.084-.26c-.003-.008-.007-.015-.007-.023a.543.543 0 01-.027-.084 2.686 2.686 0 01-.052-.188c-.02-.061-.035-.126-.05-.187a7.818 7.818 0 01-.098-.43c-.011-.05-.023-.099-.03-.145a1.774 1.774 0 01-.034-.195c-.011-.065-.023-.13-.03-.195a3.22 3.22 0 01-.027-.2c-.007-.05-.015-.1-.019-.145 0-.008-.003-.015-.003-.023-.004-.008-.004-.012-.004-.015 0-.008-.004-.02-.004-.027a4.415 4.415 0 01-.03-.387l-.012-.203v-.019a13.223 13.223 0 01-.007-.387v-.08c0-.218.007-.437.026-.651l.023-.241a9.2 9.2 0 01.117-.808c.004-.008.004-.012.004-.016a8.612 8.612 0 01.189-.804 8.24 8.24 0 01.162-.52c.027-.081.057-.162.084-.242.01-.03.022-.061.034-.088.03-.084.064-.165.098-.249.034-.084.068-.165.105-.245.023-.046.042-.092.065-.138l.072-.153c.045-.096.094-.188.143-.284l.151-.275c.038-.061.072-.123.11-.18.076-.111.155-.23.23-.345.038-.057.076-.115.118-.172l.09-.127c.05-.072.102-.141.16-.214v-.004a9.687 9.687 0 011.024-1.118 6.24 6.24 0 01.385-.341c.068-.057.136-.115.208-.172l.105-.08c.004-.004.008-.004.008-.008.011-.008.019-.016.03-.023.004-.004.008-.008.015-.012.06-.046.117-.091.182-.134l.283-.195.19-.123a11.03 11.03 0 01.412-.245c.06-.034.12-.069.188-.103.076-.042.155-.08.234-.119.08-.038.155-.076.238-.11.076-.035.148-.07.223-.1.076-.035.148-.062.227-.092a.11.11 0 01.034-.015h.004c.083-.035.17-.066.257-.096.075-.027.147-.054.223-.077.004-.004.007-.004.011-.004.08-.026.159-.05.242-.072-.045.011-.09.026-.14.038.068-.02.136-.038.208-.058a5.1 5.1 0 01.416-.107c.14-.034.28-.065.42-.088a13.762 13.762 0 01.646-.096c-.06-.137-.125-.275-.19-.413v-.004a16.19 16.19 0 00-3.053-4.377C24.52 2.095 21.486.582 18.326.057a16.352 16.352 0 00-2.959 9.424c0 1.865.31 3.658.88 5.327v.004c.02.057.042.119.065.176l.09.257v.004c.11.29.223.574.348.85l.159.348c.03.061.057.123.087.18.011.027.026.05.038.073a.62.62 0 00.038.069c.03.061.056.119.086.176.03.057.06.119.091.176.046.084.09.169.132.249.046.084.095.165.14.249.05.08.095.165.144.245.045.08.094.16.143.241l-.003-.004c-.02-.011-.038-.026-.057-.034a7.538 7.538 0 00-.367-.226c-.113-.069-.226-.134-.34-.2l-.019-.01c-.124-.07-.25-.139-.378-.207h-.003a12.933 12.933 0 00-.726-.357c-.041-.019-.08-.038-.117-.053-.008-.004-.011-.008-.019-.008-.12-.053-.242-.107-.363-.157a16.17 16.17 0 00-.846-.33h-.004a15.406 15.406 0 00-5.185-.888 15.53 15.53 0 00-9.24 3.04 16.268 16.268 0 004.425 8.8 16.239 16.239 0 002.052 1.774 15.684 15.684 0 002.657 1.554 6.7 6.7 0 01.042-.325c0-.008 0-.012.003-.015.015-.107.03-.215.05-.322l.041-.218c.03-.146.06-.291.098-.433.015-.061.03-.126.05-.191.015-.05.03-.104.041-.154a2.6 2.6 0 00.05-.16c.018-.066.04-.13.06-.196.022-.065.041-.13.064-.191.023-.062.045-.127.068-.184.026-.065.049-.13.075-.192a6.646 6.646 0 01.242-.547 8.638 8.638 0 01.582-1.042c.03-.046.06-.092.087-.138.046-.065.087-.13.133-.191.06-.084.12-.172.188-.257.023-.03.046-.057.069-.084.041-.057.086-.11.128-.165.034-.038.064-.076.095-.114.083-.104.17-.2.26-.299l.133-.146c.045-.046.09-.091.136-.141.026-.027.049-.05.075-.073.023-.023.05-.05.076-.073.007-.004.011-.011.019-.019.056-.053.113-.11.173-.16l.087-.081.087-.077c.06-.05.117-.103.182-.153.06-.05.12-.1.185-.145.06-.05.125-.1.189-.142.053-.038.102-.077.155-.115.019-.015.038-.027.056-.042.065-.042.125-.088.19-.13.128-.085.256-.165.389-.245.064-.039.132-.077.2-.115a9.53 9.53 0 01.208-.115c.28-.146.567-.28.861-.398.099-.043.197-.077.295-.115.098-.039.2-.073.303-.104.136-.042.272-.08.408-.122.155-.042.31-.08.468-.115l.238-.046c.08-.015.16-.03.239-.042l.241-.035c.08-.011.163-.019.246-.03.163-.016.329-.03.491-.039.076-.003.148-.007.223-.007.038 0 .076 0 .114-.004h.11c.264 0 .528.011.785.034.129.012.261.023.39.043.094.015.189.026.28.042.094.015.184.03.279.05l.03.007.114.023.105.023a7.608 7.608 0 01.321.08 9.342 9.342 0 011.059.349c.083.034.17.069.253.107.064.027.128.058.193.084.064.027.125.058.189.088l.185.092c.06.031.125.062.185.1.06.03.121.065.181.1 0 .003.004.003.004.003a16.297 16.297 0 011.992 5.595 15.538 15.538 0 01-5.714 2.635 15.45 15.45 0 015.718 2.627 16.226 16.226 0 01-1.984 5.598c.128-.073.253-.15.378-.23a20.47 20.47 0 00-.223.383c1.651-1 3.5-1.704 5.472-2.037a16.27 16.27 0 012.577 5.844 16.253 16.253 0 012.566-5.848 15.48 15.48 0 015.476 2.03 7.8 7.8 0 00-.223-.383c.121.076.246.153.37.226.08.134.156.264.239.398a16.07 16.07 0 006.946 6.15c.208.092.412.184.624.268.143.058.287.115.434.165.004.004.012.004.015.007.065.023.125.05.19.073a15.52 15.52 0 005.188.885 15.49 15.49 0 009.237-3.04 15.694 15.694 0 00-.462-2.023 2.617 2.617 0 00-.049-.16c-.022-.066-.041-.135-.064-.204a16.126 16.126 0 00-1.27-2.944c-.083-.15-.166-.299-.253-.444v-.004a16.08 16.08 0 00-2.332-3.025 16.344 16.344 0 00-.74-.717 15.837 15.837 0 00-2.415-1.792h-.004c-.28-.168-.567-.33-.854-.482h-.004a5.15 5.15 0 00-.287-.15l-.136-.065a.134.134 0 00-.034-.015c-.08-.038-.155-.073-.23-.111a9.483 9.483 0 01-4.68 7.237c-.12.07-.245.138-.37.203-.064.031-.124.062-.189.092a6.864 6.864 0 01-.59.26 9.448 9.448 0 01-.48.177c-.052.019-.105.034-.154.05a8.212 8.212 0 01-.885.23c-.147.03-.298.057-.45.08-.075.011-.15.023-.23.03a9.54 9.54 0 01-1.171.073h-.106c-.038 0-.076 0-.11-.004h-.007c-.06 0-.125-.004-.185-.007-.084-.004-.17-.012-.254-.016-.072-.007-.147-.011-.219-.019a4.785 4.785 0 01-.234-.027c-.008 0-.011-.003-.015-.003l-.076-.012a4.488 4.488 0 01-.245-.038 7.19 7.19 0 01-.458-.084l-.049-.012c-.038-.008-.075-.015-.11-.027l-.045-.011-.181-.046a5.448 5.448 0 01-.488-.146c-.08-.023-.155-.05-.234-.076a9.226 9.226 0 01-1.516-.701 16.182 16.182 0 01-1.991-5.599 15.586 15.586 0 015.71-2.634 15.59 15.59 0 01-5.718-2.623 16.35 16.35 0 011.98-5.599c.121-.069.242-.138.367-.203l.185-.092a8.414 8.414 0 01.964-.405c.117-.043.238-.081.359-.12.12-.038.246-.072.367-.107.124-.03.249-.06.374-.088.124-.026.253-.05.378-.072.192-.035.385-.062.578-.08a7.782 7.782 0 01.986-.054 9.102 9.102 0 016.493 2.726c.049.046.098.1.147.15.152.16.303.329.443.501.23.28.442.575.642.88l.193.311c.12.203.234.41.336.62.06.12.113.238.17.357a9.26 9.26 0 01.484 1.363 9.787 9.787 0 01.283 1.512c.136-.06.269-.13.405-.195a15.811 15.811 0 004.278-3.12 16.243 16.243 0 004.429-8.831 15.529 15.529 0 00-9.218-3.022c-1.825 0-3.578.314-5.211.896-.144.05-.287.108-.427.157-.28.111-.56.23-.832.353a19.763 19.763 0 00-1.206.617c-.26.149-.517.306-.766.466a16.266 16.266 0 001.553-3.304v-.004c.563-1.662.87-3.447.87-5.3A16.37 16.37 0 0044.074 0a15.655 15.655 0 00-8.61 4.526 16.113 16.113 0 00-3.064 4.4c-.08.173-.144.31-.204.448zM18.228 21h-.019c-.087.004-.17.004-.25.008a8.956 8.956 0 00-.555.042h-.03l-.25.03h-.015l-.015.004-.12.02-.122.019-.211.034-.06.012-.012.003-.011.004-.118.023-.12.023-.012.004-.011.004c-.159.034-.329.076-.533.13l-.011.004-.012.004c-.132.038-.287.08-.442.13a6.744 6.744 0 00-.359.122 4.114 4.114 0 00-.344.135 10.706 10.706 0 00-1.213.582c-.08.042-.155.088-.227.13a16.477 16.477 0 00-.594.379l-.056.038-.011.008-.011.008.003-.004c-.019.011-.049.034-.087.061a1.9 1.9 0 00-.143.107 3.315 3.315 0 00-.23.176l-.205.161-.196.165-.008.008-.008.007-.049.046-.026.023a1.736 1.736 0 00-.113.104c-.05.042-.095.084-.133.122l-.019.015-.094.096-.023.02c-.019.018-.038.034-.053.053l-.019.019c-.018.02-.037.038-.056.057a6.074 6.074 0 00-.155.161c-.053.054-.098.107-.148.161a7.49 7.49 0 00-.298.345l-.05.061-.045.054-.007.007-.008.008a3.76 3.76 0 00-.15.195l-.05.065-.008.008-.007.008-.008.007c-.071.092-.136.188-.204.284a2.889 2.889 0 00-.12.176l-.031.046-.011.015-.012.015-.041.062-.042.065a12.47 12.47 0 00-.242.39c-.15.26-.294.533-.427.808-.072.157-.132.288-.185.41-.026.065-.06.138-.09.222a11.15 11.15 0 00-.08.203l-.004.008v.004c-.015.046-.034.088-.049.134l-.023.065c-.026.076-.052.157-.083.237l-.068.215c-.011.034-.022.065-.03.1l-.015.053-.008.019a14.732 14.732 0 01-2.8-2.24A14.798 14.798 0 011.633 19.3a14.162 14.162 0 017.76-2.298c1.628 0 3.223.272 4.742.812l.102.035a13.492 13.492 0 01.986.402l.065.03.03.012.026.011.02.008.018.008c.095.042.197.091.284.134.124.06.249.126.374.187l.041.023c.095.05.186.1.276.153.023.012.046.027.068.039l.023.011c.083.046.162.096.246.146.015.007.03.019.045.027l.019.011.011.008.012.007a.672.672 0 00.071.043c.424.658.892 1.286 1.399 1.883h-.023V21zm3.515-7.073c-.03.062-.06.123-.087.184l-.03.065-.027.062a7.553 7.553 0 00-.132.298c-.038.085-.076.184-.117.287-.012.035-.027.07-.038.104l-.004.011v.008c-.03.084-.06.165-.087.249a9.355 9.355 0 00-.189.601 9.981 9.981 0 00-.151.601c-.019.088-.038.165-.053.242l-.004.007-.019.096c-.007.054-.019.103-.026.157l-.019.107v.008c-.034.21-.064.425-.083.659l-.023.26c-.015.207-.026.413-.03.624a17.138 17.138 0 00-1.844-1.428l-.05-.085-.067-.114-.05-.088c-.022-.043-.049-.085-.071-.13l-.042-.077c-.026-.054-.057-.104-.083-.154l-.015-.026-.08-.15c-.022-.042-.041-.084-.064-.13l-.023-.046-.018-.03c-.012-.02-.02-.043-.03-.066v-.003l-.042-.092-.042-.088c-.049-.107-.098-.21-.143-.318a16.13 16.13 0 01-.257-.624l-.06-.165a4.528 4.528 0 01-.073-.207l-.011-.034-.011-.035a.049.049 0 01-.008-.023l-.034-.095a15.08 15.08 0 01-.805-4.875c0-2.826.771-5.545 2.237-7.912 2.68.61 5.11 1.976 7.075 3.983A14.73 14.73 0 0128.19 8.39l-.034.012-.034.007-.034.012-.06.019-.095.023-.038.019c-.053.02-.106.034-.159.054a7.144 7.144 0 00-.245.092h-.004a.88.88 0 00-.128.05 4.7 4.7 0 00-.227.091 4.822 4.822 0 00-.246.111 7.828 7.828 0 00-.537.264 3.08 3.08 0 00-.154.085l-.05.027-.007.003-.008.004c-.147.08-.283.161-.412.241l-.022.016-.023.015c-.008.004-.015.012-.026.015-.069.043-.136.088-.208.134-.099.066-.2.134-.31.211a3.89 3.89 0 00-.151.111c-.012.008-.023.02-.038.027-.008.004-.015.011-.02.015l-.086.054-.023.023-.007.004-.027.027-.019.015-.015.011-.015.012a9.869 9.869 0 00-.227.187c-.068.058-.143.12-.223.192a7.32 7.32 0 00-.234.214L24 10.83l-.038.039a12.035 12.035 0 00-.767.816l-.004.003-.004.004c-.09.111-.185.226-.29.36l-.296.38v.022a4.316 4.316 0 00-.14.203c-.094.138-.173.268-.253.394-.03.046-.056.096-.087.142l-.03.05-.007.011-.008.012c-.06.103-.117.21-.174.318-.041.118-.102.23-.158.344zm21.435 28.655h.031c.09.008.18.012.272.016.064.004.124.007.189.007.022 0 .049.004.071.004h.087c.046 0 .091.004.14.004a9.644 9.644 0 001.345-.092l.25-.034c.174-.027.351-.058.518-.096.079-.015.158-.035.242-.054.098-.019.188-.042.275-.069a5.6 5.6 0 00.488-.141c.06-.02.125-.038.185-.062a10.429 10.429 0 00.786-.299c.17-.072.321-.14.45-.206l.041-.02.148-.072.011-.004.012-.004c.162-.084.29-.153.408-.222.08-.046.155-.088.226-.134a10.764 10.764 0 004.766-6.246c.14.089.28.177.42.269a14.355 14.355 0 012.38 1.976 14.861 14.861 0 012.132 2.764l.08.13c.048.081.097.173.158.28.472.85.862 1.754 1.16 2.688l.03.096.035.103c.015.047.026.089.037.13v.008l.117.418c.05.195.099.386.14.582a14.14 14.14 0 01-7.755 2.297 14.27 14.27 0 01-4.244-.64l-.521-.175c-.03-.012-.06-.02-.091-.03l-.011-.008-.08-.027c-.12-.042-.245-.092-.393-.15a13.986 13.986 0 01-2.373-1.23 14.645 14.645 0 01-2.226-1.76.43.43 0 01.064.003zm-4.047-10.787a16.97 16.97 0 00-2.483 1.52l-.673.494.132.835c.106.674.254 1.337.435 1.988l-1.75-1.092 1.043 1.666c-.6-.169-1.21-.306-1.829-.41l-.82-.138-.484.69a17.794 17.794 0 00-1.485 2.542 17.447 17.447 0 00-1.489-2.538l-.484-.69-.816.138a16.89 16.89 0 00-1.916.437l1.043-1.735-1.644 1.06c.17-.623.31-1.263.412-1.91l.132-.835-.672-.494a16.998 16.998 0 00-2.487-1.52 17.165 17.165 0 002.483-1.52l.672-.494-.132-.835a17.867 17.867 0 00-.412-1.9l1.758 1.134-1.115-1.804a17.04 17.04 0 001.867.421l.827.138.484-.689a17.606 17.606 0 001.485-2.543c.36.75.771 1.475 1.236 2.172v1.183l1.553-.26a16.85 16.85 0 001.814-.41l-1.07 1.708 1.788-1.122a18.101 18.101 0 00-.427 1.972l-.132.838.673.494c.79.575 1.621 1.08 2.483 1.51zm6.436-12.702c.155-.096.306-.188.453-.272.238-.134.488-.264.733-.387l.37-.176c.235-.107.48-.21.76-.321l.091-.035c.102-.038.2-.076.306-.11 1.527-.545 3.13-.82 4.77-.82 2.766 0 5.423.785 7.736 2.282a14.81 14.81 0 01-3.897 7.234 14.538 14.538 0 01-2.781 2.228 10.345 10.345 0 00-.235-.708c-.026-.073-.056-.15-.083-.222l-.022-.054-.004-.008-.004-.007c-.053-.134-.11-.264-.166-.394a8.32 8.32 0 00-.19-.403 8.676 8.676 0 00-.385-.708 10.774 10.774 0 00-.956-1.367 12.81 12.81 0 00-.684-.762c-1.942-1.953-4.493-3.052-7.21-3.106a16.92 16.92 0 001.398-1.884zM36.395 5.526c1.957-2 4.38-3.366 7.052-3.979a14.955 14.955 0 012.248 7.93 15.04 15.04 0 01-.797 4.852l-.034.104a14.993 14.993 0 01-1.236 2.673c-.642.432-1.258.911-1.84 1.432a11.107 11.107 0 00-.37-2.616c-.027-.1-.057-.214-.095-.333l-.012-.042-.004-.008-.007-.022a9.578 9.578 0 00-.151-.452v-.004l-.027-.07c-.011-.034-.026-.068-.037-.106l-.023-.062c-.03-.084-.064-.16-.095-.237a3.273 3.273 0 00-.09-.214 1.015 1.015 0 00-.034-.077c-.012-.03-.027-.057-.038-.088l-.015-.038-.004-.008-.004-.008a7.631 7.631 0 00-.12-.252l-.005-.008-.003-.008c-.012-.023-.023-.05-.038-.072a3.371 3.371 0 00-.11-.211v-.008l-.181-.318c-.011-.023-.027-.042-.038-.065v-.172l-.298-.306c-.004-.004-.004-.008-.008-.012l-.038-.053-.007-.012-.008-.011c-.06-.088-.125-.184-.2-.288a12.969 12.969 0 00-.65-.816c-.064-.076-.125-.141-.178-.198a3.786 3.786 0 00-.12-.13c-.016-.02-.035-.035-.054-.054l-.003-.004a8.669 8.669 0 00-.507-.49c-.068-.061-.128-.119-.189-.169l-.007-.007-.053-.043c-.08-.065-.155-.13-.23-.191a10.277 10.277 0 00-.73-.536 8.768 8.768 0 00-.87-.525c-.094-.05-.188-.1-.287-.15l-.007-.003-.008-.004a8.166 8.166 0 00-.4-.187 4.492 4.492 0 00-.223-.096c-.065-.027-.129-.054-.197-.08l-.011-.004-.011-.004-.038-.015a2.906 2.906 0 00-.167-.062c-.071-.027-.14-.05-.211-.076-.068-.023-.14-.046-.208-.07a2.322 2.322 0 00-.174-.053 15.248 15.248 0 012.2-2.864z" fill="#000"/><path d="M18.47 41.266c-3.873 0-7.188-2.436-8.563-5.886a8.61 8.61 0 01-.148-.402c-.026-.069-.045-.134-.068-.207a11.753 11.753 0 01-.177-.624 9.807 9.807 0 01-.227-1.302h-.004c-.132.061-.268.13-.4.195h-.004a15.802 15.802 0 00-3.541 2.413l-.374.344-.004.004c-.125.12-.246.238-.367.36v.004a16.244 16.244 0 00-4.43 8.83 15.532 15.532 0 009.218 3.026c1.826 0 3.58-.318 5.212-.896a15.442 15.442 0 003.235-1.6 15.988 15.988 0 004.962-5.082v-.004c.083-.13.159-.26.234-.395a9.084 9.084 0 01-1.511.701 9.09 9.09 0 01-3.043.52zm-1.36 3.094c-.352.23-.71.437-1.062.624-.605.322-1.243.605-1.893.835a14.22 14.22 0 01-4.774.82c-2.766 0-5.423-.79-7.736-2.287a14.813 14.813 0 014.23-7.563l.014-.015c.106-.103.22-.203.33-.303.657-.59 1.36-1.118 2.104-1.577l.09.295v.007l.005.008.011.034c.023.07.042.135.068.2.053.157.113.314.17.455 1.633 4.094 5.48 6.736 9.803 6.736.288 0 .575-.011.862-.034a14.312 14.312 0 01-2.222 1.765z" fill="#000"/></svg>