<svg width="63" height="50" fill="none" xmlns="http://www.w3.org/2000/svg"><path d="M30.71 29.595c-12.924 0-26.663-3.041-26.663-8.68 0-1.636 1.134-3.117 3.372-4.407a1.021 1.021 0 011.397.38c.283.495.11 1.12-.378 1.406-1.512.87-2.342 1.8-2.342 2.621 0 2.767 9.363 6.62 24.613 6.62s24.613-3.858 24.613-6.62c0-2.767-9.363-6.619-24.613-6.619-1.999 0-3.993.07-5.917.205a1.023 1.023 0 01-1.094-.955c-.04-.566.383-1.06.95-1.1a85.97 85.97 0 016.061-.216c12.923 0 26.662 3.042 26.662 8.68 0 5.644-13.739 8.685-26.662 8.685z" fill="#090B0F" fill-opacity=".7"/><path d="M31.29 49.998C15.47 49.998 0 34.693 0 23.272c0-4.143 1.735-7.2 5.156-9.096a1.025 1.025 0 011.393.405c.273.5.09 1.126-.403 1.401-2.795 1.546-4.092 3.863-4.092 7.29 0 10.316 14.738 24.67 29.247 24.67 14.216 0 28.66-14.78 28.66-25.406 0-11.157-19.939-12.357-28.516-12.357-3.152 0-6.583.165-9.651.465a1.024 1.024 0 01-1.119-.926 1.03 1.03 0 01.92-1.125c3.132-.305 6.633-.476 9.85-.476 8.513 0 15.727 1.041 20.869 3.012 6.434 2.467 9.696 6.304 9.696 11.407 0 5.533-3.61 12.428-9.428 17.986-6.31 6.023-14.066 9.476-21.291 9.476z" fill="#090B0F" fill-opacity=".7"/><path d="M30.465 26.148c-5.007 0-10.75-.66-10.988-.685a.991.991 0 01-.622-.31L1.208 6.47a1.032 1.032 0 01.04-1.46L6.295.278a1.017 1.017 0 011.412.015l17.886 17.415c1.83.155 9.308 1.09 11.869 6.249a1.02 1.02 0 01-.497 1.396c-1.214.54-3.337.795-6.5.795zm-10.387-2.661c1.353.145 6.21.66 10.387.66 2.173 0 3.58-.15 4.485-.32-2.928-3.702-9.775-4.078-9.85-4.078a1.022 1.022 0 01-.666-.295L6.981 2.45l-3.58 3.367 16.677 17.67zm8.294 10.816c-.05 0-.1-.005-.149-.01-.273-.04-.895-.07-1.68-.115-5.59-.3-20.437-1.095-25.623-9.36-1.392-2.222-.517-6.084.73-7.875.324-.466.96-.58 1.428-.255.462.325.577.97.253 1.436-.97 1.395-1.481 4.312-.676 5.593 4.624 7.37 18.701 8.12 24.002 8.405.905.05 1.501.08 1.864.135.562.08.95.605.866 1.166-.08.515-.518.88-1.015.88zm5.47-.095c-.289 0-.587-.005-.89-.01a1.03 1.03 0 01-1-1.056c.015-.57.482-1.03 1.05-1.005 1.426.035 2.63-.015 4.022-.175a1.025 1.025 0 011.134.905 1.028 1.028 0 01-.9 1.14 29.227 29.227 0 01-3.416.201z" fill="#090B0F" fill-opacity=".7"/><path d="M33.926 26.113c-.338 0-.666-.005-.984-.015a1.026 1.026 0 01-.985-1.065c.02-.57.497-1.011 1.06-.991 4.912.18 10.963-1.026 11.71-1.536.417-.295.566-.555.526-.675-.08-.245-.671-.686-1.75-.666a1.023 1.023 0 01-1.05-1.005 1.02 1.02 0 011-1.051c1.82-.05 3.327.795 3.744 2.081.348 1.066-.144 2.192-1.307 3.007-1.368.956-7.528 1.916-11.964 1.916z" fill="#090B0F" fill-opacity=".7"/></svg>