<svg width="43" height="63" fill="none" xmlns="http://www.w3.org/2000/svg"><path d="M35.182 0H7.818C3.498 0 0 3.524 0 7.875v47.25C0 59.475 3.499 63 7.818 63h27.364C39.502 63 43 59.476 43 55.125V7.875C43 3.525 39.501 0 35.182 0zm3.909 55.125c0 2.166-1.76 3.938-3.91 3.938H7.819c-2.15 0-3.909-1.772-3.909-3.938V7.875c0-2.166 1.76-3.938 3.91-3.938h27.363c2.15 0 3.909 1.772 3.909 3.938v47.25z" fill="#000"/><path d="M17.59 9.844h7.82a1.967 1.967 0 001.954-1.969c0-1.083-.88-1.969-1.955-1.969h-7.818a1.967 1.967 0 00-1.955 1.969c0 1.083.88 1.969 1.955 1.969zm3.91 47.25a2.942 2.942 0 002.932-2.953 2.943 2.943 0 00-2.932-2.953 2.942 2.942 0 00-2.932 2.953c0 1.63 1.313 2.953 2.932 2.953z" fill="#000"/></svg>