<svg width="50" height="62" fill="none" xmlns="http://www.w3.org/2000/svg"><path d="M25 0C11.211 0 0 11.166 0 24.9c0 11.837 12.885 26.048 23.712 35.893L25.038 62l1.308-1.245C38.308 49.282 50 37.062 50 24.9 50 11.167 38.788 0 25 0zm-.038 56.733C11.327 44.053 3.846 32.79 3.846 24.9c0-11.627 9.48-21.07 21.154-21.07 11.673 0 21.154 9.443 21.154 21.07 0 10.247-10.27 21.318-21.193 31.833z" fill="#000"/><path d="M25 15.323c-5.308 0-9.615 4.29-9.615 9.576 0 5.287 4.307 9.577 9.615 9.577s9.615-4.29 9.615-9.576c0-5.287-4.307-9.577-9.615-9.577zm0 15.323c-3.173 0-5.77-2.586-5.77-5.747 0-3.16 2.597-5.745 5.77-5.745 3.173 0 5.77 2.585 5.77 5.745s-2.597 5.747-5.77 5.747z" fill="#000"/></svg>