<svg width="62" height="46" fill="none" xmlns="http://www.w3.org/2000/svg"><path d="M10.713 32.36c-.963 0-2.12-.075-3.312-.314-4.12-.83-6.674-3.24-7.386-6.971a.85.85 0 01.448-.916c3.07-1.573 5.946-1.92 8.559-1.028 4.061 1.383 5.929 5.254 6.007 5.42a.848.848 0 01-1.53.73c-.03-.058-1.671-3.405-5.037-4.544-1.995-.677-4.225-.459-6.637.652 1.807 6.59 10.764 5.188 11.155 5.126a.85.85 0 01.28 1.676c-.074.003-1.095.168-2.547.168z" fill="#090B0F" fill-opacity=".72"/><path d="M5.689 42.046c-.856 0-1.757-.082-2.7-.252a.85.85 0 01-.699-.875c.148-3.454 1.268-6.137 3.325-7.977 3.201-2.86 7.48-2.584 7.661-2.572a.846.846 0 01.782.908.843.843 0 01-.905.784c-.05-.004-3.773-.222-6.423 2.155-1.547 1.39-2.452 3.409-2.7 6.013 2.63.339 4.823-.107 6.518-1.333 2.827-2.043 3.37-5.572 3.374-5.609a.846.846 0 111.675.244c-.025.173-.658 4.28-4.061 6.74-1.617 1.184-3.58 1.774-5.847 1.774z" fill="#090B0F" fill-opacity=".72"/><path d="M22.736 45.827a.982.982 0 01-.19-.02c-3.357-.773-5.789-2.362-7.22-4.727-2.226-3.677-1.181-7.846-1.136-8.023a.845.845 0 011.033-.607c.452.12.724.582.609 1.036-.013.046-.906 3.682.95 6.728 1.09 1.79 2.921 3.054 5.456 3.764.794-2.052.86-3.97.194-5.72-1.358-3.567-5.288-5.317-5.329-5.333a.85.85 0 01.675-1.56c.19.082 4.62 2.06 6.234 6.282.905 2.377.732 4.96-.51 7.684a.838.838 0 01-.766.496z" fill="#090B0F" fill-opacity=".72"/><path d="M23.2 35.026c-3.636 0-6.393-2.118-6.52-2.217a.85.85 0 01-.149-1.192.84.84 0 011.185-.149c.045.033 3.016 2.287 6.534 1.787 2.07-.293 3.95-1.482 5.6-3.529-1.642-1.589-3.44-2.418-5.349-2.472-.066 0-.132-.004-.197-.004-3.642 0-6.56 2.782-6.588 2.81a.844.844 0 01-1.197-.02.854.854 0 01.016-1.201c.144-.14 3.547-3.4 7.995-3.29 2.584.067 4.958 1.255 7.06 3.525a.854.854 0 01.062 1.081c-2.036 2.79-4.452 4.4-7.184 4.78-.428.062-.856.09-1.267.09z" fill="#090B0F" fill-opacity=".72"/><path d="M16.918 30.312a.837.837 0 01-.61-.26.854.854 0 01.021-1.2c.03-.025 2.687-2.659 2.695-6.237.005-2.109-.909-4.156-2.715-6.092-1.774 1.214-2.86 2.72-3.234 4.49-.798 3.777 1.847 7.607 1.876 7.648a.854.854 0 01-.206 1.185.851.851 0 01-1.18-.202c-.128-.182-3.095-4.462-2.153-8.969.51-2.435 2.054-4.44 4.58-5.968a.85.85 0 011.029.12c2.464 2.419 3.707 5.048 3.695 7.813-.017 4.3-3.082 7.31-3.21 7.433a.84.84 0 01-.588.24z" fill="#090B0F" fill-opacity=".72"/><path d="M51.11 16.829a16.86 16.86 0 01-2.267-.137c-1.584-.214-2.58-.68-3.04-1.432-.214-.346-.416-.924-.148-1.704.316-.933 1.291-1.804 2.2-2.534 1.704-1.362 4-2.085 6.646-2.085.905 0 1.84.087 2.773.256a19.47 19.47 0 014.218 1.292.86.86 0 01.485.586.842.842 0 01-.177.739c-.46.553-.888.953-1.362 1.387-2.275 2.08-4.604 3.264-6.925 3.516-.115.008-1.106.116-2.402.116zm3.387-6.191c-1.576 0-3.823.297-5.588 1.713-.963.771-1.522 1.362-1.654 1.754-.062.181-.025.24-.012.264.029.045.313.437 1.827.644.584.078 1.271.12 2.04.12.984 0 1.856-.067 2.218-.108 1.955-.21 3.959-1.25 5.967-3.083.127-.12.255-.231.374-.35a17.53 17.53 0 00-2.695-.723c-.84-.153-1.67-.231-2.477-.231z" fill="#090B0F" fill-opacity=".69"/><path d="M46.444 11.344c-.802 0-1.415-.442-1.69-1.214-.28-.788-.095-1.857.123-2.798.543-2.353 2.415-4.536 5.127-5.993A15.792 15.792 0 0153.349.027a.855.855 0 01.74.157c.21.165.326.42.322.689a11.06 11.06 0 01-.173 1.585c-.408 2.493-1.305 4.44-2.67 5.79-.507.5-1.786 1.635-2.992 2.357-.835.5-1.535.739-2.132.739zm-.053-1.738c.008 0 .025.02.053.02.128 0 .502-.04 1.268-.495 1.107-.66 2.3-1.737 2.666-2.1 1.103-1.09 1.84-2.72 2.19-4.85.007-.045.016-.09.02-.136-.622.227-1.239.5-1.786.792-2.284 1.226-3.843 3.005-4.275 4.879-.272 1.172-.247 1.634-.177 1.828.02.046.033.062.041.062zM16.502 42.33a.83.83 0 01-.424-.115c-2.954-1.72-3.575-3.529-3.575-4.742 0-1.13.514-2.212 1.526-3.215a.844.844 0 011.198.008.85.85 0 01-.008 1.201c-.675.669-1.02 1.342-1.02 2.002 0 1.387 1.484 2.547 2.731 3.273a.851.851 0 01.309 1.16.85.85 0 01-.737.429zM34.833 46c-4.316 0-8.497-.45-12.085-1.304a.85.85 0 01.391-1.655c3.46.821 7.505 1.259 11.694 1.259 12.163 0 20.639-3.595 20.639-6.827 0-1.308-1.341-2.414-2.465-3.108a.849.849 0 01.89-1.444c2.703 1.671 3.27 3.4 3.27 4.556 0 2.435-2.436 4.648-6.855 6.228C46.165 45.183 40.668 46 34.833 46zm4.02-11.626c-3.58 0-7.09-.388-10.147-1.119a.85.85 0 01.391-1.655c2.934.702 6.308 1.073 9.756 1.073 5.057 0 9.797-.776 13.352-2.187 3.255-1.292 5.123-2.984 5.123-4.635 0-2.567-4.547-5.126-11.056-6.228a.85.85 0 01.28-1.676c7.69 1.3 12.467 4.33 12.467 7.904 0 2.422-2.201 4.63-6.193 6.215-3.744 1.486-8.71 2.308-13.973 2.308zM24.448 12.487a.854.854 0 01-.836-.706.853.853 0 01.692-.982c.119-.02.238-.041.358-.058.46-.074.897.24.97.706a.85.85 0 01-.703.974c-.115.016-.23.037-.341.058a1.598 1.598 0 01-.14.008zm-7.913 4.011a.853.853 0 01-.782-1.184c.848-1.99 3.481-3.166 5.539-3.801a.846.846 0 011.057.561.844.844 0 01-.56 1.06c-2.39.74-4.024 1.78-4.48 2.849a.834.834 0 01-.774.515zm13.278 6.245c-3.896 0-7.653-.665-10.303-1.82a.85.85 0 01.675-1.56c2.444 1.069 5.954 1.68 9.624 1.68 7.435 0 12.62-2.374 12.62-4.5 0-.948-1.066-1.964-2.926-2.79a.848.848 0 01.683-1.551c3.255 1.444 3.934 3.157 3.934 4.346.008 3.533-6.148 6.195-14.307 6.195z" fill="#090B0F" fill-opacity=".69"/><path d="M33.29 14.835c-6.044 0-10.603-2.299-10.603-5.344 0-3.046 4.559-5.345 10.603-5.345S43.893 6.445 43.893 9.49c0 3.045-4.559 5.344-10.603 5.344zm0-8.989c-5.25 0-8.908 1.923-8.908 3.649 0 1.725 3.658 3.648 8.908 3.648s8.908-1.923 8.908-3.648c0-1.726-3.658-3.649-8.908-3.649z" fill="#090B0F" fill-opacity=".69"/><path d="M37.948 11.736h-.083a.86.86 0 01-.827-.88.86.86 0 01.869-.837h.04c.564 0 1.116-.293 1.284-.586.058-.1.038-.128.009-.178a.848.848 0 01.284-1.164.848.848 0 011.164.29c.362.602.366 1.3.008 1.914-.493.859-1.617 1.44-2.748 1.44zm.633 6.979a.85.85 0 01-.144-1.688c.638-.112 1.033-.508 1.079-.751.04-.236-.317-.47-.474-.562a.852.852 0 01-.317-1.16.847.847 0 011.157-.317c1.403.805 1.378 1.898 1.304 2.332-.181 1.036-1.193 1.91-2.456 2.13-.054.008-.1.016-.149.016zm11.591 11.003a.85.85 0 01-.144-1.688c1.556-.268 3.045-1.193 3.39-2.105.14-.371.075-.701-.217-1.065a.846.846 0 111.32-1.06c.659.83.832 1.8.478 2.732-.659 1.737-2.893 2.864-4.687 3.174a.732.732 0 01-.14.012zm1.296-6.121a.832.832 0 01-.325-.066c-.37-.152-.781-.3-1.222-.437a.85.85 0 01.502-1.626c.49.152.95.317 1.37.49a.848.848 0 01.457 1.111.84.84 0 01-.782.528zM40.849 42.434a.848.848 0 01-.848-.85c0-.47.379-.85.848-.85 5.57 0 9.566-1.726 10.159-2.514a.855.855 0 01.555-.867.846.846 0 011.086.508c.087.235.173.718-.218 1.28-1.106 1.589-6.028 3.293-11.582 3.293zm10.521-5.431a.83.83 0 01-.642-.298c-.264-.305-.67-.606-1.214-.895a.852.852 0 01-.35-1.148.846.846 0 011.144-.35c.728.388 1.304.825 1.704 1.291a.851.851 0 01-.09 1.197.852.852 0 01-.552.203z" fill="#090B0F" fill-opacity=".69"/></svg>