<svg width="17" height="17" fill="none" xmlns="http://www.w3.org/2000/svg"><path fill-rule="evenodd" clip-rule="evenodd" d="M8.5 12.22a.327.327 0 110-.656A3.065 3.065 0 105.435 8.5c0 .18-.147.328-.327.328A.328.328 0 014.78 8.5a3.72 3.72 0 113.72 3.72zM4.63 5.433a4.938 4.938 0 107.74 0h4.302A.327.327 0 0017 5.107V1.424C17 .641 16.36 0 15.576 0H1.424C.641 0 0 .64 0 1.424v3.683c0 .182.147.327.327.327H4.63zm7.115-.656h4.6V1.423a.772.772 0 00-.77-.77H1.426a.772.772 0 00-.77.77v3.355h4.6A4.92 4.92 0 018.5 3.562a4.92 4.92 0 013.245 1.216zM8.5 6.273a2.226 2.226 0 102.226 2.226.327.327 0 10-.655 0A1.571 1.571 0 118.5 6.928a.327.327 0 000-.655zm0 6.507a4.28 4.28 0 100-8.56 4.28 4.28 0 000 8.56zM15 1.768c.088 0 .159.07.159.16v1.574c0 .09-.07.16-.16.16h-1.575a.159.159 0 01-.16-.16V1.927a.16.16 0 01.16-.16H15zm-1.575-.655h1.574a.82.82 0 01.816.816v1.575c0 .445-.37.816-.816.816h-1.575a.82.82 0 01-.816-.816V1.929a.82.82 0 01.816-.816zm2.918 5.155v9.308a.773.773 0 01-.769.769H1.424a.774.774 0 01-.77-.77V6.269a.327.327 0 10-.655 0v9.308A1.431 1.431 0 001.425 17h14.15a1.43 1.43 0 001.424-1.424V6.268a.327.327 0 10-.655 0z" fill="#231F20"/></svg>