<svg width="21" height="19" fill="none" xmlns="http://www.w3.org/2000/svg"><path fill-rule="evenodd" clip-rule="evenodd" d="M18.129 16.357a.408.408 0 01.519-.27.43.43 0 01.26.538c-.284.888-1.026 1.72-1.987 1.72h-8.73a.42.42 0 01-.413-.427c0-.235.185-.428.412-.428h8.731c.59-.004 1.042-.615 1.208-1.133zm.811-2.407a.413.413 0 01.48-.342c.222.043.37.266.329.497-.146.81-.697 1.434-1.525 1.434h-.768a.421.421 0 01-.412-.428.42.42 0 01.412-.427h.768c.424 0 .643-.335.716-.734zM8.385 9.11a.402.402 0 01-.582.039.438.438 0 01-.037-.604c1.192-1.403 1.657-3.007 2.395-4.653v-2.85c0-.104.036-.198.095-.272.661-.896 1.916-.961 2.818-.448.018.01.162.162.162.162.714 1.29 1.071 2.268 1.16 3.34.077.935-.054 1.917-.334 3.226h5.391c1.014 0 1.545.939 1.547 1.888 0 .961-.54 1.874-1.563 1.874h-.767a.421.421 0 01-.413-.428c0-.235.186-.427.413-.427h.767c.531 0 .742-.548.74-1.019 0-.452-.21-1.033-.724-1.033h-5.908a.424.424 0 01-.4-.524c.337-1.493.509-2.536.43-3.485-.075-.904-.383-1.755-.994-2.878-.502-.244-1.182-.246-1.593.182v2.784s-.033.165-.04.18c-.802 1.773-1.264 3.42-2.563 4.946zm11.062 2.475a.416.416 0 01.47-.36c.225.035.38.254.347.487-.124.838-.679 1.51-1.54 1.51h-.767a.421.421 0 01-.412-.428.42.42 0 01.412-.428h.768c.442 0 .66-.366.722-.781zM6.355 9.359H.848l.505 8.786h5.002V9.359zM.412 8.502h6.357a.42.42 0 01.413.428v9.643a.421.421 0 01-.413.427H.966a.418.418 0 01-.41-.4L.003 8.986a.422.422 0 01.409-.485zm1.35 2.336a.42.42 0 01-.413-.427c0-.235.186-.428.413-.428h3.585a.42.42 0 01.412.428v6.298a.42.42 0 01-.412.428.42.42 0 01-.413-.434.393.393 0 00-.388-.397.396.396 0 00-.389.403c0 .223.174.403.389.403a.42.42 0 01.412.428.421.421 0 01-.412.427c-.67 0-1.214-.565-1.214-1.258 0-.695.545-1.258 1.214-1.258.136 0 .266.022.388.066v-4.679H1.762z" fill="#231F20"/></svg>