<svg width="18" height="19" fill="none" xmlns="http://www.w3.org/2000/svg"><path fill-rule="evenodd" clip-rule="evenodd" d="M9 18.266c4.587 0 8.306-3.924 8.306-8.768C17.306 4.656 13.588.73 9 .73S.692 4.658.692 9.5c0 1.68.445 3.304 1.302 4.72a.385.385 0 01.038.306L.967 18.058l3.33-1.163a.33.33 0 01.312.05A7.97 7.97 0 009 18.267zM9 19a8.615 8.615 0 01-4.636-1.357L.543 18.977c-.264.091-.523-.17-.438-.457l1.222-4.054A9.862 9.862 0 010 9.5C-.002 4.254 4.028 0 9 0c4.97 0 9 4.254 9 9.5S13.97 19 9 19zm-4.052-2.67a.377.377 0 01-.108-.505.336.336 0 01.478-.114A6.651 6.651 0 009 16.825c3.834 0 6.94-3.278 6.94-7.325 0-4.047-3.106-7.325-6.94-7.325-3.834 0-6.94 3.278-6.94 7.325 0 1.403.37 2.76 1.086 3.942l.345.569a.385.385 0 01.039.306l-.652 2.165a.343.343 0 01-.433.238.37.37 0 01-.226-.457l.604-2.002-.26-.427a8.367 8.367 0 01-1.2-4.334c0-4.45 3.418-8.057 7.634-8.057 4.215 0 7.633 3.607 7.633 8.057s-3.418 8.057-7.633 8.057a7.31 7.31 0 01-4.05-1.227zM8 10.793a8.67 8.67 0 001.285 1.054c.408.265.8.41 1.063.284.395-.19.811-.89 1.132-.869.447.03 1.524.254 1.856.57.116.11.206.495.121.64-.51.864-1.242 1.324-2.233 1.258-1.41-.095-2.893-1.193-3.889-2.205-.997-1.012-2.095-2.529-2.24-4.015-.101-1.037.307-1.837 1.104-2.406.132-.095.504-.014.612.103.312.338.566 1.466.612 1.937.033.336-.614.803-.778 1.226-.11.28.045.69.31 1.11A8.716 8.716 0 008 10.794zm-.472-1.72c.268.426.676.913.952 1.193.275.278.751.69 1.165.956.227.147.4.25.414.243.482-.232.638-.989 1.462-.935.62.042 1.813.314 2.278.755.363.345.51 1.123.246 1.571-.647 1.096-1.616 1.683-2.866 1.6-1.59-.105-3.2-1.266-4.325-2.407-1.123-1.14-2.286-2.797-2.449-4.468-.128-1.313.392-2.358 1.404-3.083.413-.296 1.156-.172 1.496.196.437.473.74 1.718.805 2.37.084.87-.626 1.06-.828 1.579-.007.02.098.198.246.43z" fill="#231F20"/></svg>