<svg width="20" height="17" fill="none" xmlns="http://www.w3.org/2000/svg"><path fill-rule="evenodd" clip-rule="evenodd" d="M7.193 13.436c-1.52 1.025-3.45 1.595-5.25 1.751a10.745 10.745 0 005.528.972c6.023-.54 10.495-5.952 10.019-12.125a3.906 3.906 0 00-.043-.388.404.404 0 01.248-.442l1.754-.818a.384.384 0 01.515.197c.09.2.004.436-.192.528l-1.515.707c.005.052.007.101.011.153.51 6.609-4.282 12.405-10.728 12.983a11.542 11.542 0 01-7.348-1.837c-.355-.213-.183-.78.231-.742l.094.01c.554.045.94.043 1.502-.006 1.31-.117 2.723-.505 3.905-1.111-1.759-.36-3.362-1.22-4.077-2.418a.406.406 0 01.13-.55.385.385 0 01.535.133c.606 1.019 2.053 1.759 3.649 2.068 1.59.308 3.307.18 4.483-.53a.384.384 0 01.532.142.404.404 0 01-.139.545c-1.05.633-2.448.866-3.844.778zm7.23-4.064c0-2.097-1.555-3.854-3.589-4.059-.002-.262-.019-.518-.035-.778-.08-.946.22-1.835.77-2.508a3.318 3.318 0 014.15-.828 3.37 3.37 0 011.356 1.375c.002 0 .025.038.028.042.127.177.37.216.543.088l1.706-1.274a.406.406 0 00.086-.556.384.384 0 00-.543-.088l-1.368 1.02a4.152 4.152 0 00-1.443-1.31 4.073 4.073 0 00-5.112 1.018 4.286 4.286 0 00-.952 3.1c.019.223.032.445.034.669A10.74 10.74 0 015.8 4.17a11.105 11.105 0 01-3.757-3.05.386.386 0 00-.679.157c-.41 1.702.041 4.709 1.605 5.705.183.117.424.06.538-.128a.406.406 0 00-.125-.55C2.302 5.616 1.928 3.5 2.004 2.282a11.86 11.86 0 003.46 2.606 11.493 11.493 0 004.978 1.204c1.768 0 3.201 1.468 3.201 3.279 0 .22.175.4.39.4.215 0 .39-.178.39-.4zM.705 6.435c.463 1.937 1.855 3.566 3.739 4.145a.388.388 0 00.485-.27.4.4 0 00-.263-.497c-1.617-.497-2.81-1.908-3.205-3.565a.39.39 0 00-.47-.294.397.397 0 00-.286.481z" fill="#231F20"/></svg>